<svg width="128" height="128" viewBox="0 0 128 128" fill="none" xmlns="http://www.w3.org/2000/svg">
<rect width="128" height="128" fill="url(#paint0_radial_7225_92317)"/>
<rect width="128" height="128" fill="url(#paint1_radial_7225_92317)"/>
<rect width="128" height="128" fill="url(#paint2_radial_7225_92317)"/>
<rect width="128" height="128" fill="url(#paint3_radial_7225_92317)"/>
<rect width="128" height="128" fill="url(#paint4_radial_7225_92317)"/>
<rect width="128" height="128" fill="url(#paint5_radial_7225_92317)"/>
<rect width="128" height="128" fill="url(#paint6_radial_7225_92317)"/>
<rect width="128" height="128" fill="url(#paint7_radial_7225_92317)"/>
<rect width="128" height="128" fill="url(#paint8_radial_7225_92317)"/>
<path fill-rule="evenodd" clip-rule="evenodd" d="M38.3439 51.5895C34.1644 57.9663 34.97 66.0308 35.8372 69.2029L35.9131 69.4802L35.9702 69.762C37.5442 77.5237 42.3004 84.567 49.6795 88.8274C57.7685 93.4975 67.1879 93.7674 75.1914 90.351C80.6752 88.0102 85.4652 83.9476 88.6815 78.3768C92.6007 71.5885 93.4183 63.8776 91.5684 56.8418C89.6953 49.7183 85.1026 43.3423 78.2309 39.3749C71.3592 35.4075 63.5411 34.6182 56.4354 36.5578C51.8501 37.8095 47.1182 35.107 45.8665 30.5216C44.6148 25.9362 47.3173 21.2044 51.9026 19.9527C63.2574 16.8531 75.8276 18.1118 86.8373 24.4683C97.847 30.8247 105.222 41.0815 108.215 52.4648C111.172 63.7099 109.867 76.1084 103.588 86.9832C98.4458 95.89 90.7414 102.429 81.949 106.182C69.1786 111.633 54.0512 111.227 41.0732 103.734C29.328 96.953 21.7242 85.7386 19.156 73.4508C17.6784 67.7919 16.0633 54.1837 23.9476 42.1541C26.5531 38.1787 31.888 37.0682 35.8634 39.6737C39.8388 42.2792 40.9494 47.614 38.3439 51.5895Z" fill="url(#paint9_linear_7225_92317)"/>
<path fill-rule="evenodd" clip-rule="evenodd" d="M38.3439 51.5895C34.1644 57.9663 34.97 66.0308 35.8372 69.2029L35.9131 69.4802L35.9702 69.762C37.5442 77.5237 42.3004 84.567 49.6795 88.8274C57.7685 93.4975 67.1879 93.7674 75.1914 90.351C80.6752 88.0102 85.4652 83.9476 88.6815 78.3768C92.6007 71.5885 93.4183 63.8776 91.5684 56.8418C89.6953 49.7183 85.1026 43.3423 78.2309 39.3749C71.3592 35.4075 63.5411 34.6182 56.4354 36.5578C51.8501 37.8095 47.1182 35.107 45.8665 30.5216C44.6148 25.9362 47.3173 21.2044 51.9026 19.9527C63.2574 16.8531 75.8276 18.1118 86.8373 24.4683C97.847 30.8247 105.222 41.0815 108.215 52.4648C111.172 63.7099 109.867 76.1084 103.588 86.9832C98.4458 95.89 90.7414 102.429 81.949 106.182C69.1786 111.633 54.0512 111.227 41.0732 103.734C29.328 96.953 21.7242 85.7386 19.156 73.4508C17.6784 67.7919 16.0633 54.1837 23.9476 42.1541C26.5531 38.1787 31.888 37.0682 35.8634 39.6737C39.8388 42.2792 40.9494 47.614 38.3439 51.5895Z" fill="url(#paint10_radial_7225_92317)"/>
<path fill-rule="evenodd" clip-rule="evenodd" d="M38.3439 51.5895C34.1644 57.9663 34.97 66.0308 35.8372 69.2029L35.9131 69.4802L35.9702 69.762C37.5442 77.5237 42.3004 84.567 49.6795 88.8274C57.7685 93.4975 67.1879 93.7674 75.1914 90.351C80.6752 88.0102 85.4652 83.9476 88.6815 78.3768C92.6007 71.5885 93.4183 63.8776 91.5684 56.8418C89.6953 49.7183 85.1026 43.3423 78.2309 39.3749C71.3592 35.4075 63.5411 34.6182 56.4354 36.5578C51.8501 37.8095 47.1182 35.107 45.8665 30.5216C44.6148 25.9362 47.3173 21.2044 51.9026 19.9527C63.2574 16.8531 75.8276 18.1118 86.8373 24.4683C97.847 30.8247 105.222 41.0815 108.215 52.4648C111.172 63.7099 109.867 76.1084 103.588 86.9832C98.4458 95.89 90.7414 102.429 81.949 106.182C69.1786 111.633 54.0512 111.227 41.0732 103.734C29.328 96.953 21.7242 85.7386 19.156 73.4508C17.6784 67.7919 16.0633 54.1837 23.9476 42.1541C26.5531 38.1787 31.888 37.0682 35.8634 39.6737C39.8388 42.2792 40.9494 47.614 38.3439 51.5895Z" fill="url(#paint11_radial_7225_92317)"/>
<path fill-rule="evenodd" clip-rule="evenodd" d="M38.3439 51.5895C34.1644 57.9663 34.97 66.0308 35.8372 69.2029L35.9131 69.4802L35.9702 69.762C37.5442 77.5237 42.3004 84.567 49.6795 88.8274C57.7685 93.4975 67.1879 93.7674 75.1914 90.351C80.6752 88.0102 85.4652 83.9476 88.6815 78.3768C92.6007 71.5885 93.4183 63.8776 91.5684 56.8418C89.6953 49.7183 85.1026 43.3423 78.2309 39.3749C71.3592 35.4075 63.5411 34.6182 56.4354 36.5578C51.8501 37.8095 47.1182 35.107 45.8665 30.5216C44.6148 25.9362 47.3173 21.2044 51.9026 19.9527C63.2574 16.8531 75.8276 18.1118 86.8373 24.4683C97.847 30.8247 105.222 41.0815 108.215 52.4648C111.172 63.7099 109.867 76.1084 103.588 86.9832C98.4458 95.89 90.7414 102.429 81.949 106.182C69.1786 111.633 54.0512 111.227 41.0732 103.734C29.328 96.953 21.7242 85.7386 19.156 73.4508C17.6784 67.7919 16.0633 54.1837 23.9476 42.1541C26.5531 38.1787 31.888 37.0682 35.8634 39.6737C39.8388 42.2792 40.9494 47.614 38.3439 51.5895Z" fill="url(#paint12_radial_7225_92317)"/>
<path fill-rule="evenodd" clip-rule="evenodd" d="M38.3439 51.5895C34.1644 57.9663 34.97 66.0308 35.8372 69.2029L35.9131 69.4802L35.9702 69.762C37.5442 77.5237 42.3004 84.567 49.6795 88.8274C57.7685 93.4975 67.1879 93.7674 75.1914 90.351C80.6752 88.0102 85.4652 83.9476 88.6815 78.3768C92.6007 71.5885 93.4183 63.8776 91.5684 56.8418C89.6953 49.7183 85.1026 43.3423 78.2309 39.3749C71.3592 35.4075 63.5411 34.6182 56.4354 36.5578C51.8501 37.8095 47.1182 35.107 45.8665 30.5216C44.6148 25.9362 47.3173 21.2044 51.9026 19.9527C63.2574 16.8531 75.8276 18.1118 86.8373 24.4683C97.847 30.8247 105.222 41.0815 108.215 52.4648C111.172 63.7099 109.867 76.1084 103.588 86.9832C98.4458 95.89 90.7414 102.429 81.949 106.182C69.1786 111.633 54.0512 111.227 41.0732 103.734C29.328 96.953 21.7242 85.7386 19.156 73.4508C17.6784 67.7919 16.0633 54.1837 23.9476 42.1541C26.5531 38.1787 31.888 37.0682 35.8634 39.6737C39.8388 42.2792 40.9494 47.614 38.3439 51.5895Z" fill="url(#paint13_radial_7225_92317)" fill-opacity="0.5"/>
<path fill-rule="evenodd" clip-rule="evenodd" d="M38.3439 51.5895C34.1644 57.9663 34.97 66.0308 35.8372 69.2029L35.9131 69.4802L35.9702 69.762C37.5442 77.5237 42.3004 84.567 49.6795 88.8274C57.7685 93.4975 67.1879 93.7674 75.1914 90.351C80.6752 88.0102 85.4652 83.9476 88.6815 78.3768C92.6007 71.5885 93.4183 63.8776 91.5684 56.8418C89.6953 49.7183 85.1026 43.3423 78.2309 39.3749C71.3592 35.4075 63.5411 34.6182 56.4354 36.5578C51.8501 37.8095 47.1182 35.107 45.8665 30.5216C44.6148 25.9362 47.3173 21.2044 51.9026 19.9527C63.2574 16.8531 75.8276 18.1118 86.8373 24.4683C97.847 30.8247 105.222 41.0815 108.215 52.4648C111.172 63.7099 109.867 76.1084 103.588 86.9832C98.4458 95.89 90.7414 102.429 81.949 106.182C69.1786 111.633 54.0512 111.227 41.0732 103.734C29.328 96.953 21.7242 85.7386 19.156 73.4508C17.6784 67.7919 16.0633 54.1837 23.9476 42.1541C26.5531 38.1787 31.888 37.0682 35.8634 39.6737C39.8388 42.2792 40.9494 47.614 38.3439 51.5895Z" fill="url(#paint14_radial_7225_92317)" fill-opacity="0.6"/>
<path fill-rule="evenodd" clip-rule="evenodd" d="M38.3439 51.5895C34.1644 57.9663 34.97 66.0308 35.8372 69.2029L35.9131 69.4802L35.9702 69.762C37.5442 77.5237 42.3004 84.567 49.6795 88.8274C57.7685 93.4975 67.1879 93.7674 75.1914 90.351C80.6752 88.0102 85.4652 83.9476 88.6815 78.3768C92.6007 71.5885 93.4183 63.8776 91.5684 56.8418C89.6953 49.7183 85.1026 43.3423 78.2309 39.3749C71.3592 35.4075 63.5411 34.6182 56.4354 36.5578C51.8501 37.8095 47.1182 35.107 45.8665 30.5216C44.6148 25.9362 47.3173 21.2044 51.9026 19.9527C63.2574 16.8531 75.8276 18.1118 86.8373 24.4683C97.847 30.8247 105.222 41.0815 108.215 52.4648C111.172 63.7099 109.867 76.1084 103.588 86.9832C98.4458 95.89 90.7414 102.429 81.949 106.182C69.1786 111.633 54.0512 111.227 41.0732 103.734C29.328 96.953 21.7242 85.7386 19.156 73.4508C17.6784 67.7919 16.0633 54.1837 23.9476 42.1541C26.5531 38.1787 31.888 37.0682 35.8634 39.6737C39.8388 42.2792 40.9494 47.614 38.3439 51.5895Z" fill="url(#paint15_radial_7225_92317)"/>
<path fill-rule="evenodd" clip-rule="evenodd" d="M38.3439 51.5895C34.1644 57.9663 34.97 66.0308 35.8372 69.2029L35.9131 69.4802L35.9702 69.762C37.5442 77.5237 42.3004 84.567 49.6795 88.8274C57.7685 93.4975 67.1879 93.7674 75.1914 90.351C80.6752 88.0102 85.4652 83.9476 88.6815 78.3768C92.6007 71.5885 93.4183 63.8776 91.5684 56.8418C89.6953 49.7183 85.1026 43.3423 78.2309 39.3749C71.3592 35.4075 63.5411 34.6182 56.4354 36.5578C51.8501 37.8095 47.1182 35.107 45.8665 30.5216C44.6148 25.9362 47.3173 21.2044 51.9026 19.9527C63.2574 16.8531 75.8276 18.1118 86.8373 24.4683C97.847 30.8247 105.222 41.0815 108.215 52.4648C111.172 63.7099 109.867 76.1084 103.588 86.9832C98.4458 95.89 90.7414 102.429 81.949 106.182C69.1786 111.633 54.0512 111.227 41.0732 103.734C29.328 96.953 21.7242 85.7386 19.156 73.4508C17.6784 67.7919 16.0633 54.1837 23.9476 42.1541C26.5531 38.1787 31.888 37.0682 35.8634 39.6737C39.8388 42.2792 40.9494 47.614 38.3439 51.5895Z" fill="url(#paint16_radial_7225_92317)"/>
<path fill-rule="evenodd" clip-rule="evenodd" d="M38.3439 51.5895C34.1644 57.9663 34.97 66.0308 35.8372 69.2029L35.9131 69.4802L35.9702 69.762C37.5442 77.5237 42.3004 84.567 49.6795 88.8274C57.7685 93.4975 67.1879 93.7674 75.1914 90.351C80.6752 88.0102 85.4652 83.9476 88.6815 78.3768C92.6007 71.5885 93.4183 63.8776 91.5684 56.8418C89.6953 49.7183 85.1026 43.3423 78.2309 39.3749C71.3592 35.4075 63.5411 34.6182 56.4354 36.5578C51.8501 37.8095 47.1182 35.107 45.8665 30.5216C44.6148 25.9362 47.3173 21.2044 51.9026 19.9527C63.2574 16.8531 75.8276 18.1118 86.8373 24.4683C97.847 30.8247 105.222 41.0815 108.215 52.4648C111.172 63.7099 109.867 76.1084 103.588 86.9832C98.4458 95.89 90.7414 102.429 81.949 106.182C69.1786 111.633 54.0512 111.227 41.0732 103.734C29.328 96.953 21.7242 85.7386 19.156 73.4508C17.6784 67.7919 16.0633 54.1837 23.9476 42.1541C26.5531 38.1787 31.888 37.0682 35.8634 39.6737C39.8388 42.2792 40.9494 47.614 38.3439 51.5895Z" fill="url(#paint17_radial_7225_92317)"/>
<path fill-rule="evenodd" clip-rule="evenodd" d="M38.3439 51.5895C34.1644 57.9663 34.97 66.0308 35.8372 69.2029L35.9131 69.4802L35.9702 69.762C37.5442 77.5237 42.3004 84.567 49.6795 88.8274C57.7685 93.4975 67.1879 93.7674 75.1914 90.351C80.6752 88.0102 85.4652 83.9476 88.6815 78.3768C92.6007 71.5885 93.4183 63.8776 91.5684 56.8418C89.6953 49.7183 85.1026 43.3423 78.2309 39.3749C71.3592 35.4075 63.5411 34.6182 56.4354 36.5578C51.8501 37.8095 47.1182 35.107 45.8665 30.5216C44.6148 25.9362 47.3173 21.2044 51.9026 19.9527C63.2574 16.8531 75.8276 18.1118 86.8373 24.4683C97.847 30.8247 105.222 41.0815 108.215 52.4648C111.172 63.7099 109.867 76.1084 103.588 86.9832C98.4458 95.89 90.7414 102.429 81.949 106.182C69.1786 111.633 54.0512 111.227 41.0732 103.734C29.328 96.953 21.7242 85.7386 19.156 73.4508C17.6784 67.7919 16.0633 54.1837 23.9476 42.1541C26.5531 38.1787 31.888 37.0682 35.8634 39.6737C39.8388 42.2792 40.9494 47.614 38.3439 51.5895Z" fill="url(#paint18_radial_7225_92317)"/>
<path fill-rule="evenodd" clip-rule="evenodd" d="M38.3439 51.5895C34.1644 57.9663 34.97 66.0308 35.8372 69.2029L35.9131 69.4802L35.9702 69.762C37.5442 77.5237 42.3004 84.567 49.6795 88.8274C57.7685 93.4975 67.1879 93.7674 75.1914 90.351C80.6752 88.0102 85.4652 83.9476 88.6815 78.3768C92.6007 71.5885 93.4183 63.8776 91.5684 56.8418C89.6953 49.7183 85.1026 43.3423 78.2309 39.3749C71.3592 35.4075 63.5411 34.6182 56.4354 36.5578C51.8501 37.8095 47.1182 35.107 45.8665 30.5216C44.6148 25.9362 47.3173 21.2044 51.9026 19.9527C63.2574 16.8531 75.8276 18.1118 86.8373 24.4683C97.847 30.8247 105.222 41.0815 108.215 52.4648C111.172 63.7099 109.867 76.1084 103.588 86.9832C98.4458 95.89 90.7414 102.429 81.949 106.182C69.1786 111.633 54.0512 111.227 41.0732 103.734C29.328 96.953 21.7242 85.7386 19.156 73.4508C17.6784 67.7919 16.0633 54.1837 23.9476 42.1541C26.5531 38.1787 31.888 37.0682 35.8634 39.6737C39.8388 42.2792 40.9494 47.614 38.3439 51.5895Z" fill="url(#paint19_radial_7225_92317)" fill-opacity="0.5"/>
<circle cx="37.9099" cy="90.5993" r="8.60938" transform="rotate(-62.0503 37.9099 90.5993)" fill="url(#paint20_radial_7225_92317)"/>
<circle cx="37.9099" cy="90.5993" r="8.60938" transform="rotate(-62.0503 37.9099 90.5993)" fill="url(#paint21_radial_7225_92317)" fill-opacity="0.8"/>
<circle cx="54.0095" cy="28.3537" r="8.60938" transform="rotate(-62.0503 54.0095 28.3537)" fill="url(#paint22_radial_7225_92317)"/>
<circle cx="54.0095" cy="28.3537" r="8.60938" transform="rotate(-62.0503 54.0095 28.3537)" fill="url(#paint23_radial_7225_92317)" fill-opacity="0.8"/>
<path fill-rule="evenodd" clip-rule="evenodd" d="M62.583 47.731C64.6541 47.7309 66.333 49.4099 66.333 51.4809L66.3331 65.3766L78.6012 70.0151C80.5385 70.7476 81.5151 72.9118 80.7826 74.849C80.0502 76.7862 77.886 77.7629 75.9488 77.0304L61.58 71.5976C59.9269 70.9726 58.8331 69.3897 58.8331 67.6223L58.833 51.481C58.833 49.4099 60.5119 47.731 62.583 47.731Z" fill="url(#paint24_radial_7225_92317)"/>
<path fill-rule="evenodd" clip-rule="evenodd" d="M62.583 47.731C64.6541 47.7309 66.333 49.4099 66.333 51.4809L66.3331 65.3766L78.6012 70.0151C80.5385 70.7476 81.5151 72.9118 80.7826 74.849C80.0502 76.7862 77.886 77.7629 75.9488 77.0304L61.58 71.5976C59.9269 70.9726 58.8331 69.3897 58.8331 67.6223L58.833 51.481C58.833 49.4099 60.5119 47.731 62.583 47.731Z" fill="url(#paint25_linear_7225_92317)" fill-opacity="0.9"/>
<path fill-rule="evenodd" clip-rule="evenodd" d="M62.583 47.731C64.6541 47.7309 66.333 49.4099 66.333 51.4809L66.3331 65.3766L78.6012 70.0151C80.5385 70.7476 81.5151 72.9118 80.7826 74.849C80.0502 76.7862 77.886 77.7629 75.9488 77.0304L61.58 71.5976C59.9269 70.9726 58.8331 69.3897 58.8331 67.6223L58.833 51.481C58.833 49.4099 60.5119 47.731 62.583 47.731Z" fill="url(#paint26_radial_7225_92317)"/>
<path fill-rule="evenodd" clip-rule="evenodd" d="M62.583 47.731C64.6541 47.7309 66.333 49.4099 66.333 51.4809L66.3331 65.3766L78.6012 70.0151C80.5385 70.7476 81.5151 72.9118 80.7826 74.849C80.0502 76.7862 77.886 77.7629 75.9488 77.0304L61.58 71.5976C59.9269 70.9726 58.8331 69.3897 58.8331 67.6223L58.833 51.481C58.833 49.4099 60.5119 47.731 62.583 47.731Z" fill="url(#paint27_linear_7225_92317)" fill-opacity="0.9"/>
<path fill-rule="evenodd" clip-rule="evenodd" d="M62.583 47.731C64.6541 47.7309 66.333 49.4099 66.333 51.4809L66.3331 65.3766L78.6012 70.0151C80.5385 70.7476 81.5151 72.9118 80.7826 74.849C80.0502 76.7862 77.886 77.7629 75.9488 77.0304L61.58 71.5976C59.9269 70.9726 58.8331 69.3897 58.8331 67.6223L58.833 51.481C58.833 49.4099 60.5119 47.731 62.583 47.731Z" fill="url(#paint28_radial_7225_92317)"/>
<path fill-rule="evenodd" clip-rule="evenodd" d="M62.583 47.731C64.6541 47.7309 66.333 49.4099 66.333 51.4809L66.3331 65.3766L78.6012 70.0151C80.5385 70.7476 81.5151 72.9118 80.7826 74.849C80.0502 76.7862 77.886 77.7629 75.9488 77.0304L61.58 71.5976C59.9269 70.9726 58.8331 69.3897 58.8331 67.6223L58.833 51.481C58.833 49.4099 60.5119 47.731 62.583 47.731Z" fill="url(#paint29_radial_7225_92317)"/>
<path fill-rule="evenodd" clip-rule="evenodd" d="M62.583 47.731C64.6541 47.7309 66.333 49.4099 66.333 51.4809L66.3331 65.3766L78.6012 70.0151C80.5385 70.7476 81.5151 72.9118 80.7826 74.849C80.0502 76.7862 77.886 77.7629 75.9488 77.0304L61.58 71.5976C59.9269 70.9726 58.8331 69.3897 58.8331 67.6223L58.833 51.481C58.833 49.4099 60.5119 47.731 62.583 47.731Z" fill="url(#paint30_radial_7225_92317)"/>
<path fill-rule="evenodd" clip-rule="evenodd" d="M62.583 47.731C64.6541 47.7309 66.333 49.4099 66.333 51.4809L66.3331 65.3766L78.6012 70.0151C80.5385 70.7476 81.5151 72.9118 80.7826 74.849C80.0502 76.7862 77.886 77.7629 75.9488 77.0304L61.58 71.5976C59.9269 70.9726 58.8331 69.3897 58.8331 67.6223L58.833 51.481C58.833 49.4099 60.5119 47.731 62.583 47.731Z" fill="url(#paint31_radial_7225_92317)"/>
<path fill-rule="evenodd" clip-rule="evenodd" d="M62.583 47.731C64.6541 47.7309 66.333 49.4099 66.333 51.4809L66.3331 65.3766L78.6012 70.0151C80.5385 70.7476 81.5151 72.9118 80.7826 74.849C80.0502 76.7862 77.886 77.7629 75.9488 77.0304L61.58 71.5976C59.9269 70.9726 58.8331 69.3897 58.8331 67.6223L58.833 51.481C58.833 49.4099 60.5119 47.731 62.583 47.731Z" fill="url(#paint32_radial_7225_92317)"/>
<path fill-rule="evenodd" clip-rule="evenodd" d="M62.583 47.731C64.6541 47.7309 66.333 49.4099 66.333 51.4809L66.3331 65.3766L78.6012 70.0151C80.5385 70.7476 81.5151 72.9118 80.7826 74.849C80.0502 76.7862 77.886 77.7629 75.9488 77.0304L61.58 71.5976C59.9269 70.9726 58.8331 69.3897 58.8331 67.6223L58.833 51.481C58.833 49.4099 60.5119 47.731 62.583 47.731Z" fill="url(#paint33_radial_7225_92317)"/>
<path fill-rule="evenodd" clip-rule="evenodd" d="M62.583 47.731C64.6541 47.7309 66.333 49.4099 66.333 51.4809L66.3331 65.3766L78.6012 70.0151C80.5385 70.7476 81.5151 72.9118 80.7826 74.849C80.0502 76.7862 77.886 77.7629 75.9488 77.0304L61.58 71.5976C59.9269 70.9726 58.8331 69.3897 58.8331 67.6223L58.833 51.481C58.833 49.4099 60.5119 47.731 62.583 47.731Z" fill="url(#paint34_radial_7225_92317)"/>
<path fill-rule="evenodd" clip-rule="evenodd" d="M62.583 47.731C64.6541 47.7309 66.333 49.4099 66.333 51.4809L66.3331 65.3766L78.6012 70.0151C80.5385 70.7476 81.5151 72.9118 80.7826 74.849C80.0502 76.7862 77.886 77.7629 75.9488 77.0304L61.58 71.5976C59.9269 70.9726 58.8331 69.3897 58.8331 67.6223L58.833 51.481C58.833 49.4099 60.5119 47.731 62.583 47.731Z" fill="url(#paint35_radial_7225_92317)"/>
<path fill-rule="evenodd" clip-rule="evenodd" d="M62.583 47.731C64.6541 47.7309 66.333 49.4099 66.333 51.4809L66.3331 65.3766L78.6012 70.0151C80.5385 70.7476 81.5151 72.9118 80.7826 74.849C80.0502 76.7862 77.886 77.7629 75.9488 77.0304L61.58 71.5976C59.9269 70.9726 58.8331 69.3897 58.8331 67.6223L58.833 51.481C58.833 49.4099 60.5119 47.731 62.583 47.731Z" fill="url(#paint36_radial_7225_92317)" fill-opacity="0.6"/>
<path fill-rule="evenodd" clip-rule="evenodd" d="M62.583 47.731C64.6541 47.7309 66.333 49.4099 66.333 51.4809L66.3331 65.3766L78.6012 70.0151C80.5385 70.7476 81.5151 72.9118 80.7826 74.849C80.0502 76.7862 77.886 77.7629 75.9488 77.0304L61.58 71.5976C59.9269 70.9726 58.8331 69.3897 58.8331 67.6223L58.833 51.481C58.833 49.4099 60.5119 47.731 62.583 47.731Z" fill="url(#paint37_radial_7225_92317)" fill-opacity="0.4"/>
<defs>
<radialGradient id="paint0_radial_7225_92317" cx="0" cy="0" r="1" gradientUnits="userSpaceOnUse" gradientTransform="translate(72.375 78.25) rotate(-31.3389) scale(52.3939 45.7482)">
<stop offset="0.707292" stop-color="#0E0E0E"/>
<stop offset="0.823429" stop-color="#0E0E0E" stop-opacity="0"/>
</radialGradient>
<radialGradient id="paint1_radial_7225_92317" cx="0" cy="0" r="1" gradientUnits="userSpaceOnUse" gradientTransform="translate(73 35) rotate(19.8351) scale(37.2074 22.8185)">
<stop offset="0.669202" stop-color="#595959"/>
<stop offset="0.971501" stop-color="#262626" stop-opacity="0"/>
</radialGradient>
<radialGradient id="paint2_radial_7225_92317" cx="0" cy="0" r="1" gradientUnits="userSpaceOnUse" gradientTransform="translate(37 73.125) rotate(69.8765) scale(34.8793 24.2199)">
<stop offset="0.711405" stop-color="#595959"/>
<stop offset="1" stop-color="#262626" stop-opacity="0"/>
</radialGradient>
<radialGradient id="paint3_radial_7225_92317" cx="0" cy="0" r="1" gradientUnits="userSpaceOnUse" gradientTransform="translate(64 66.875) rotate(75.2413) scale(48.0865 46.5405)">
<stop offset="0.655372" stop-color="#262626"/>
<stop offset="0.970376" stop-color="#0E0E0E" stop-opacity="0"/>
</radialGradient>
<radialGradient id="paint4_radial_7225_92317" cx="0" cy="0" r="1" gradientUnits="userSpaceOnUse" gradientTransform="translate(28.625 48.125) rotate(117.058) scale(19.5104 13.6809)">
<stop offset="0.398279" stop-color="#595959"/>
<stop offset="0.950692" stop-color="#262626" stop-opacity="0"/>
</radialGradient>
<radialGradient id="paint5_radial_7225_92317" cx="0" cy="0" r="1" gradientUnits="userSpaceOnUse" gradientTransform="translate(65.25 66.375) rotate(-16.6351) scale(42.7909 45.6784)">
<stop offset="0.526248" stop-color="#262626" stop-opacity="0"/>
<stop offset="0.645732" stop-color="#0E0E0E"/>
<stop offset="0.728646" stop-color="#0E0E0E"/>
<stop offset="0.792261" stop-color="#0E0E0E" stop-opacity="0"/>
</radialGradient>
<radialGradient id="paint6_radial_7225_92317" cx="0" cy="0" r="1" gradientUnits="userSpaceOnUse" gradientTransform="translate(63 63) rotate(-28.6983) scale(58.5697 55.1787)">
<stop offset="0.442923" stop-color="#262626" stop-opacity="0"/>
<stop offset="0.54961" stop-color="#595959"/>
<stop offset="0.581717" stop-color="#595959"/>
<stop offset="0.63214" stop-color="#0E0E0E" stop-opacity="0"/>
</radialGradient>
<radialGradient id="paint7_radial_7225_92317" cx="0" cy="0" r="1" gradientUnits="userSpaceOnUse" gradientTransform="translate(46.25 41) rotate(85.7994) scale(22.1846 15.5352)">
<stop offset="0.477772" stop-color="#262626"/>
<stop offset="0.7952" stop-color="#262626" stop-opacity="0"/>
</radialGradient>
<radialGradient id="paint8_radial_7225_92317" cx="0" cy="0" r="1" gradientUnits="userSpaceOnUse" gradientTransform="translate(55.125 31.25) rotate(-0.489696) scale(14.6255 10.3789)">
<stop offset="0.509434" stop-color="#0E0E0E"/>
<stop offset="1" stop-color="#262626" stop-opacity="0"/>
</radialGradient>
<linearGradient id="paint9_linear_7225_92317" x1="54.875" y1="16.5" x2="49.875" y2="107.75" gradientUnits="userSpaceOnUse">
<stop offset="0.0991952" stop-color="#4AA647"/>
<stop offset="0.192142" stop-color="#4AA647"/>
<stop offset="0.401927" stop-color="#88E06C"/>
<stop offset="0.594631" stop-color="#88E06C"/>
<stop offset="0.941428" stop-color="#66C0FF"/>
</linearGradient>
<radialGradient id="paint10_radial_7225_92317" cx="0" cy="0" r="1" gradientUnits="userSpaceOnUse" gradientTransform="translate(68.625 70) rotate(-117.46) scale(35.7815 36.3841)">
<stop offset="0.66473" stop-color="#0067BF"/>
<stop offset="0.830608" stop-color="#66C0FF" stop-opacity="0"/>
</radialGradient>
<radialGradient id="paint11_radial_7225_92317" cx="0" cy="0" r="1" gradientUnits="userSpaceOnUse" gradientTransform="translate(30.125 66.5) rotate(92.8958) scale(64.3321 41.2892)">
<stop offset="0.462518" stop-color="#262626"/>
<stop offset="0.708108" stop-color="#262626" stop-opacity="0"/>
</radialGradient>
<radialGradient id="paint12_radial_7225_92317" cx="0" cy="0" r="1" gradientUnits="userSpaceOnUse" gradientTransform="translate(67.125 50.25) rotate(116.565) scale(33.541 40.2829)">
<stop offset="0.466667" stop-color="#C8F5B7"/>
<stop offset="0.660003" stop-color="#62BE55" stop-opacity="0"/>
</radialGradient>
<radialGradient id="paint13_radial_7225_92317" cx="0" cy="0" r="1" gradientUnits="userSpaceOnUse" gradientTransform="translate(58.625 56.5) rotate(75.8768) scale(79.9156 75.9114)">
<stop offset="0.622994" stop-color="white" stop-opacity="0"/>
<stop offset="0.669263" stop-color="white"/>
</radialGradient>
<radialGradient id="paint14_radial_7225_92317" cx="0" cy="0" r="1" gradientUnits="userSpaceOnUse" gradientTransform="translate(57.4375 30.625) rotate(-20.7811) scale(13.0356 14.545)">
<stop offset="0.50402" stop-color="#197123"/>
<stop offset="0.905448" stop-color="#62BE55" stop-opacity="0"/>
</radialGradient>
<radialGradient id="paint15_radial_7225_92317" cx="0" cy="0" r="1" gradientUnits="userSpaceOnUse" gradientTransform="translate(63.9928 70.5) rotate(101.306) scale(73.1527 83.4034)">
<stop offset="0.594141" stop-color="#62BE55" stop-opacity="0"/>
<stop offset="0.685963" stop-color="#197123"/>
</radialGradient>
<radialGradient id="paint16_radial_7225_92317" cx="0" cy="0" r="1" gradientUnits="userSpaceOnUse" gradientTransform="translate(74.875 66.75) rotate(49.3748) scale(64.8893 60.8055)">
<stop offset="0.788984" stop-color="#0E0E0E" stop-opacity="0"/>
<stop offset="0.889481" stop-color="#0E0E0E"/>
</radialGradient>
<radialGradient id="paint17_radial_7225_92317" cx="0" cy="0" r="1" gradientUnits="userSpaceOnUse" gradientTransform="translate(29.875 37.5) rotate(-13.5166) scale(26.7407 16.0034)">
<stop offset="0.0500008" stop-color="#0E0E0E"/>
<stop offset="0.770669" stop-color="#262626" stop-opacity="0"/>
</radialGradient>
<radialGradient id="paint18_radial_7225_92317" cx="0" cy="0" r="1" gradientUnits="userSpaceOnUse" gradientTransform="translate(53.375 62.25) rotate(61.7557) scale(34.3384 32.1773)">
<stop offset="0.659878" stop-color="#595959"/>
<stop offset="0.802131" stop-color="#262626" stop-opacity="0"/>
</radialGradient>
<radialGradient id="paint19_radial_7225_92317" cx="0" cy="0" r="1" gradientUnits="userSpaceOnUse" gradientTransform="translate(40.625 96.5) rotate(-8.33255) scale(12.507 12.9565)">
<stop offset="0.50402" stop-color="#0067BF"/>
<stop offset="1" stop-color="#66C0FF" stop-opacity="0"/>
</radialGradient>
<radialGradient id="paint20_radial_7225_92317" cx="0" cy="0" r="1" gradientUnits="userSpaceOnUse" gradientTransform="translate(39.5382 86.6537) rotate(108.435) scale(15.8275)">
<stop offset="0.0264604" stop-color="#889096"/>
<stop offset="0.25" stop-color="#63686E"/>
<stop offset="0.645065" stop-color="#383B3D"/>
<stop offset="0.831818" stop-color="#63686E"/>
</radialGradient>
<radialGradient id="paint21_radial_7225_92317" cx="0" cy="0" r="1" gradientUnits="userSpaceOnUse" gradientTransform="translate(37.9099 90.5993) rotate(97.8153) scale(15.2826)">
<stop offset="0.446038" stop-color="white" stop-opacity="0"/>
<stop offset="0.841379" stop-color="white"/>
</radialGradient>
<radialGradient id="paint22_radial_7225_92317" cx="0" cy="0" r="1" gradientUnits="userSpaceOnUse" gradientTransform="translate(55.6378 24.4082) rotate(108.435) scale(15.8275)">
<stop offset="0.0264604" stop-color="#DECBFF"/>
<stop offset="0.25" stop-color="#BD96FF"/>
<stop offset="0.639454" stop-color="#7A41DC"/>
<stop offset="0.785418" stop-color="#9529C2"/>
</radialGradient>
<radialGradient id="paint23_radial_7225_92317" cx="0" cy="0" r="1" gradientUnits="userSpaceOnUse" gradientTransform="translate(54.0095 28.3537) rotate(97.8153) scale(15.2826)">
<stop offset="0.446038" stop-color="white" stop-opacity="0"/>
<stop offset="0.841379" stop-color="white"/>
</radialGradient>
<radialGradient id="paint24_radial_7225_92317" cx="0" cy="0" r="1" gradientUnits="userSpaceOnUse" gradientTransform="translate(58.2822 51.375) rotate(71.3999) scale(20.5747 17.6892)">
<stop stop-color="#FF921F"/>
<stop offset="1" stop-color="#FB5937"/>
</radialGradient>
<linearGradient id="paint25_linear_7225_92317" x1="67.6572" y1="59.1875" x2="58.833" y2="59.25" gradientUnits="userSpaceOnUse">
<stop offset="0.0642685" stop-color="#FF921F" stop-opacity="0"/>
<stop offset="0.149534" stop-color="#FFD394"/>
<stop offset="0.418666" stop-color="#FF921F" stop-opacity="0"/>
<stop offset="0.765805" stop-color="#FF921F" stop-opacity="0"/>
<stop offset="0.978328" stop-color="#FFD394"/>
</linearGradient>
<radialGradient id="paint26_radial_7225_92317" cx="0" cy="0" r="1" gradientUnits="userSpaceOnUse" gradientTransform="translate(67.4072 70.1875) rotate(-28.9597) scale(9.23076 11.6372)">
<stop offset="0.351234" stop-color="#FB5937"/>
<stop offset="0.740438" stop-color="#FB5937" stop-opacity="0"/>
</radialGradient>
<linearGradient id="paint27_linear_7225_92317" x1="66.5583" y1="74.0446" x2="69.4255" y2="66.5533" gradientUnits="userSpaceOnUse">
<stop offset="0.0691399" stop-color="#FFD394"/>
<stop offset="0.511632" stop-color="#FB5937" stop-opacity="0"/>
</linearGradient>
<radialGradient id="paint28_radial_7225_92317" cx="0" cy="0" r="1" gradientUnits="userSpaceOnUse" gradientTransform="translate(76.9697 69.4375) rotate(-160.054) scale(16.4891 2.91483)">
<stop stop-color="#FFD394"/>
<stop offset="0.98096" stop-color="#FF921F" stop-opacity="0"/>
</radialGradient>
<radialGradient id="paint29_radial_7225_92317" cx="0" cy="0" r="1" gradientUnits="userSpaceOnUse" gradientTransform="translate(69.9295 66.7188) rotate(-160.394) scale(6.4261 2.0379)">
<stop stop-color="#FFD394"/>
<stop offset="0.98096" stop-color="#FF921F" stop-opacity="0"/>
</radialGradient>
<radialGradient id="paint30_radial_7225_92317" cx="0" cy="0" r="1" gradientUnits="userSpaceOnUse" gradientTransform="translate(75.9072 67.375) rotate(-166.842) scale(12.3556 3.91831)">
<stop stop-color="#FFD394"/>
<stop offset="0.98096" stop-color="#FF921F" stop-opacity="0"/>
</radialGradient>
<radialGradient id="paint31_radial_7225_92317" cx="0" cy="0" r="1" gradientUnits="userSpaceOnUse" gradientTransform="translate(66.7822 64.3125) rotate(-101.842) scale(3.95927 2.87175)">
<stop stop-color="#FFD394"/>
<stop offset="0.98096" stop-color="#FF921F" stop-opacity="0"/>
</radialGradient>
<radialGradient id="paint32_radial_7225_92317" cx="0" cy="0" r="1" gradientUnits="userSpaceOnUse" gradientTransform="translate(58.833 70.0312) rotate(-108.506) scale(6.95331 3.63774)">
<stop stop-color="#FFD394"/>
<stop offset="0.98096" stop-color="#FF921F" stop-opacity="0"/>
</radialGradient>
<radialGradient id="paint33_radial_7225_92317" cx="0" cy="0" r="1" gradientUnits="userSpaceOnUse" gradientTransform="translate(81.7197 73.0625) rotate(-108.741) scale(7.39193 3.86721)">
<stop stop-color="#FFD394"/>
<stop offset="0.98096" stop-color="#FF921F" stop-opacity="0"/>
</radialGradient>
<radialGradient id="paint34_radial_7225_92317" cx="0" cy="0" r="1" gradientUnits="userSpaceOnUse" gradientTransform="translate(66.5947 48.9375) rotate(53.1712) scale(17.4125 9.10964)">
<stop stop-color="#FFD394"/>
<stop offset="0.98096" stop-color="#FF921F" stop-opacity="0"/>
</radialGradient>
<radialGradient id="paint35_radial_7225_92317" cx="0" cy="0" r="1" gradientUnits="userSpaceOnUse" gradientTransform="translate(66.0322 65.5625) rotate(-94.3087) scale(27.4526 25.4095)">
<stop offset="0.541587" stop-color="#FF921F" stop-opacity="0"/>
<stop offset="0.679899" stop-color="#FFD394"/>
</radialGradient>
<radialGradient id="paint36_radial_7225_92317" cx="0" cy="0" r="1" gradientUnits="userSpaceOnUse" gradientTransform="translate(61.6572 49.75) rotate(46.1691) scale(4.33193 5.88799)">
<stop offset="0.0729412" stop-color="white"/>
<stop offset="1" stop-color="#FF921F" stop-opacity="0"/>
</radialGradient>
<radialGradient id="paint37_radial_7225_92317" cx="0" cy="0" r="1" gradientUnits="userSpaceOnUse" gradientTransform="translate(61.0947 53.0625) rotate(1.23863) scale(11.5652 83.8334)">
<stop stop-color="white"/>
<stop offset="0.425075" stop-color="#FF921F" stop-opacity="0"/>
</radialGradient>
</defs>
</svg>
